<svg width="49" height="49" viewBox="0 0 49 49" fill="none" xmlns="http://www.w3.org/2000/svg">
<path d="M8.0237 33.9529C7.63579 33.9529 7.24787 33.8099 6.94162 33.5037C6.34954 32.9116 6.34954 31.9316 6.94162 31.3395L31.3395 6.94162C31.9316 6.34954 32.9116 6.34954 33.5037 6.94162C34.0958 7.5337 34.0958 8.5137 33.5037 9.10579L9.10579 33.5241C8.81995 33.8099 8.41162 33.9529 8.0237 33.9529Z" fill="#0047FF"/>
<path d="M22.6624 38.8531C22.2745 38.8531 21.8865 38.7102 21.5803 38.4039C20.9882 37.8118 20.9882 36.8318 21.5803 36.2398L24.0303 33.7898C24.6224 33.1977 25.6024 33.1977 26.1945 33.7898C26.7865 34.3818 26.7865 35.3619 26.1945 35.9539L23.7445 38.4039C23.4586 38.6898 23.0707 38.8531 22.6624 38.8531Z" fill="#0047FF"/>
<path d="M28.1546 33.3608C27.7666 33.3608 27.3787 33.2179 27.0725 32.9116C26.4804 32.3196 26.4804 31.3396 27.0725 30.7475L31.9521 25.8679C32.5441 25.2758 33.5241 25.2758 34.1162 25.8679C34.7083 26.46 34.7083 27.44 34.1162 28.0321L29.2366 32.9116C28.9508 33.1975 28.5425 33.3608 28.1546 33.3608Z" fill="#0047FF"/>
<path d="M22.6623 46.4477C20.6615 46.4477 18.6606 45.2227 16.231 42.7931L6.20645 32.7685C1.32687 27.8889 1.34728 24.7448 6.2677 19.8244L19.8244 6.2677C24.7448 1.34728 27.8889 1.32687 32.7685 6.20645L42.7931 16.231C47.6727 21.1106 47.6523 24.2548 42.7319 29.1752L29.1752 42.7319C26.7048 45.2023 24.6835 46.4477 22.6623 46.4477ZM26.3373 5.61437C25.2756 5.61437 23.9281 6.49228 21.9885 8.43187L8.43187 21.9885C6.49228 23.9281 5.61437 25.2756 5.61437 26.3169C5.61437 27.3785 6.43103 28.6648 8.37062 30.6044L18.3952 40.629C20.3348 42.5685 21.6006 43.3852 22.6623 43.3852C22.6623 43.3852 22.6623 43.3852 22.6827 43.3852C23.7444 43.3852 25.0715 42.5073 27.011 40.5677L40.5677 27.011C42.5073 25.0715 43.3852 23.724 43.3852 22.6827C43.3852 21.621 42.5685 20.3348 40.629 18.3952L30.6044 8.37062C28.6852 6.43103 27.399 5.61437 26.3373 5.61437Z" fill="#0047FF"/>
<path d="M44.9168 46.4478H4.0835C3.24641 46.4478 2.55225 45.7536 2.55225 44.9165C2.55225 44.0794 3.24641 43.3853 4.0835 43.3853H44.9168C45.7539 43.3853 46.4481 44.0794 46.4481 44.9165C46.4481 45.7536 45.7539 46.4478 44.9168 46.4478Z" fill="#0047FF"/>
</svg>
