<svg width="50" height="50" viewBox="0 0 50 50" fill="none" xmlns="http://www.w3.org/2000/svg">
<path opacity="0.5" d="M48.9998 1H1V48.9998H48.9998V1Z" stroke="#7003FA" stroke-miterlimit="10"/>
<path d="M44.5088 1H49.001V5.49225" stroke="white" stroke-width="2" stroke-miterlimit="10"/>
<path d="M1 5.49225V1H5.49225" stroke="white" stroke-width="2" stroke-miterlimit="10"/>
<path d="M1 44.5078V49.0001H5.49225" stroke="white" stroke-width="2" stroke-miterlimit="10"/>
<path d="M49.001 44.5078V49.0001H44.5088" stroke="white" stroke-width="2" stroke-miterlimit="10"/>
<path d="M17.5048 15.2985L23.5 12.068L29.4952 15.2985V21.7015L23.5 24.932L17.5048 21.7015V15.2985Z" fill="#7003FA" stroke="white"/>
<path d="M10.5048 26.7985L16.5 23.568L22.4952 26.7985V33.2015L16.5 36.432L10.5048 33.2015V26.7985Z" fill="#7003FA" stroke="white"/>
<path d="M24.5048 26.7985L30.5 23.568L36.4952 26.7985V33.2015L30.5 36.432L24.5048 33.2015V26.7985Z" fill="#7003FA" stroke="white"/>
</svg>
