<svg width="50" height="50" viewBox="0 0 50 50" fill="none" xmlns="http://www.w3.org/2000/svg">
<path opacity="0.5" d="M48.9998 1H1V48.9998H48.9998V1Z" stroke="#7003FA" stroke-miterlimit="10"/>
<path d="M44.5088 1H49.001V5.49225" stroke="white" stroke-width="2" stroke-miterlimit="10"/>
<path d="M1 5.49225V1H5.49225" stroke="white" stroke-width="2" stroke-miterlimit="10"/>
<path d="M1 44.5078V49.0001H5.49225" stroke="white" stroke-width="2" stroke-miterlimit="10"/>
<path d="M49.001 44.5078V49.0001H44.5088" stroke="white" stroke-width="2" stroke-miterlimit="10"/>
<path d="M25 32.7586C20.7152 32.7586 17.2414 29.2848 17.2414 25C17.2414 20.7152 20.7152 17.2414 25 17.2414C29.2848 17.2414 32.7586 20.7152 32.7586 25C32.7586 29.2848 29.2848 32.7586 25 32.7586ZM25 10C16.7158 10 10 16.7158 10 25C10 33.2842 16.7158 40 25 40C33.2842 40 40 33.2842 40 25C40 16.7158 33.2842 10 25 10Z" fill="#7003FA" stroke="#7003FA"/>
<path d="M22.4356 14.4277C22.1998 14.4277 21.9871 14.2663 21.9318 14.0269C21.8677 13.7486 22.0415 13.4703 22.3198 13.4062C23.0113 13.2474 23.7221 13.1496 24.4317 13.1165C24.7146 13.0959 24.9593 13.3234 24.9727 13.609C24.9862 13.8945 24.7658 14.1365 24.4803 14.15C23.8317 14.18 23.183 14.269 22.5526 14.4149C22.5132 14.4236 22.4739 14.4277 22.4356 14.4277ZM29.4401 15.036C29.3724 15.036 29.304 15.0225 29.2378 14.9952C28.6425 14.7417 28.0187 14.5415 27.3846 14.3993C27.1063 14.3373 26.9304 14.0605 26.9935 13.7818C27.0556 13.5035 27.3318 13.3281 27.6111 13.3902C28.3057 13.5459 28.989 13.7658 29.6423 14.0425C29.905 14.1542 30.0277 14.4583 29.9159 14.7206C29.8327 14.9175 29.6413 15.036 29.4401 15.036ZM17.8828 16.6369C17.7318 16.6369 17.5818 16.5712 17.4794 16.4434C17.3004 16.221 17.3361 15.8956 17.559 15.7166C18.1129 15.2718 18.7104 14.8741 19.3341 14.5363C19.5855 14.4002 19.8995 14.4938 20.035 14.7442C20.1716 14.9956 20.0785 15.3096 19.827 15.4456C19.2576 15.7538 18.7124 16.117 18.2065 16.523C18.1109 16.5996 17.9966 16.6369 17.8828 16.6369ZM33.5439 18.0003C33.4001 18.0003 33.2573 17.9409 33.1554 17.8245C32.7271 17.3383 32.2523 16.8872 31.7439 16.4838C31.5199 16.3064 31.4821 15.9811 31.6596 15.7571C31.8375 15.5336 32.1634 15.4953 32.3863 15.6733C32.9434 16.115 33.4632 16.609 33.9324 17.1418C34.1206 17.3559 34.0999 17.6828 33.8853 17.8716C33.787 17.9579 33.6649 18.0003 33.5439 18.0003ZM14.7339 20.602C14.6584 20.602 14.5824 20.5855 14.5104 20.5508C14.2528 20.4272 14.1442 20.1184 14.2678 19.8608C14.5746 19.2215 14.9418 18.605 15.3587 18.0293C15.5263 17.7981 15.85 17.7463 16.0807 17.9129C16.3125 18.0805 16.3642 18.4037 16.1966 18.6355C15.8159 19.1615 15.4802 19.7248 15.2004 20.3082C15.1115 20.4939 14.9263 20.602 14.7339 20.602ZM35.9599 22.4475C35.7339 22.4475 35.526 22.2981 35.4624 22.0694C35.288 21.4451 35.0553 20.8332 34.7718 20.2503C34.6467 19.9937 34.7532 19.6839 35.0103 19.5587C35.2668 19.4341 35.5767 19.5412 35.7014 19.7977C36.0127 20.436 36.2677 21.1069 36.4586 21.7906C36.5357 22.0663 36.3748 22.3513 36.0997 22.4284C36.053 22.4413 36.0059 22.4475 35.9599 22.4475ZM13.6208 25.5282C13.3353 25.5282 13.1035 25.3078 13.1035 25.0219V24.9991C13.1035 24.2941 13.1656 23.5881 13.2881 22.9002C13.3383 22.6188 13.6063 22.4295 13.8881 22.4817C14.1695 22.5319 14.3568 22.8003 14.3066 23.0817C14.1949 23.7096 14.138 24.3546 14.138 24.9991C14.138 25.2851 13.9063 25.5282 13.6208 25.5282ZM36.1994 27.5475C36.1689 27.5475 36.1384 27.545 36.1074 27.5398C35.826 27.4891 35.6393 27.2196 35.6899 26.9387C35.8043 26.3036 35.8622 25.6508 35.8622 24.9991C35.8622 24.7136 36.0939 24.4602 36.3795 24.4602C36.665 24.4602 36.8967 24.6687 36.8967 24.9546V24.9991C36.8967 25.7124 36.8331 26.4262 36.708 27.1219C36.6628 27.3722 36.4446 27.5475 36.1994 27.5475ZM14.7536 30.4725C14.5617 30.4725 14.3775 30.365 14.288 30.1808C13.9782 29.5415 13.7248 28.8706 13.5349 28.1863C13.4589 27.9106 13.6203 27.6256 13.8949 27.5491C14.1727 27.4746 14.4556 27.6344 14.5317 27.9091C14.7055 28.5334 14.9362 29.1463 15.2191 29.7292C15.3437 29.9863 15.2362 30.2961 14.9791 30.4203C14.9062 30.4555 14.8296 30.4725 14.7536 30.4725ZM34.2086 32.2022C34.1036 32.2022 33.997 32.1702 33.9049 32.1034C33.6743 31.9359 33.6225 31.6121 33.7906 31.3809C34.1729 30.8553 34.5091 30.2936 34.7899 29.7102C34.9141 29.4526 35.2234 29.3429 35.4805 29.4691C35.738 29.5928 35.8462 29.9021 35.722 30.1596C35.4143 30.7979 35.0459 31.414 34.6275 31.9891C34.5262 32.1287 34.3684 32.2022 34.2086 32.2022ZM17.917 34.4232C17.8037 34.4232 17.6905 34.3865 17.5953 34.3105C17.0397 33.8687 16.5209 33.3737 16.0528 32.84C15.8646 32.6253 15.8858 32.2984 16.1009 32.1101C16.3161 31.9213 16.6425 31.9425 16.8308 32.1577C17.2585 32.6454 17.7323 33.0975 18.2397 33.5015C18.4632 33.6794 18.4999 34.0047 18.322 34.2282C18.2201 34.3565 18.069 34.4232 17.917 34.4232ZM30.3996 35.5358C30.2159 35.5358 30.0375 35.437 29.9439 35.2637C29.8084 35.0124 29.9025 34.6984 30.1539 34.5634C30.7228 34.2561 31.269 33.8951 31.7765 33.4891C31.9999 33.3106 32.3247 33.3468 32.5037 33.5703C32.6822 33.7927 32.6455 34.1185 32.4225 34.297C31.8665 34.7413 31.2686 35.1375 30.6448 35.4732C30.5667 35.5162 30.4828 35.5358 30.3996 35.5358ZM22.4806 36.6158C22.4429 36.6158 22.4046 36.6122 22.3663 36.6034C21.6737 36.4466 20.9909 36.2263 20.3362 35.947C20.0739 35.8353 19.9513 35.5312 20.0636 35.2684C20.1753 35.0056 20.4794 34.8835 20.7422 34.9958C21.3391 35.2503 21.9618 35.4515 22.5939 35.5943C22.8727 35.6574 23.0476 35.9341 22.985 36.2124C22.9306 36.4529 22.717 36.6158 22.4806 36.6158ZM25.5209 36.8843C25.2463 36.8843 25.0171 36.6681 25.0047 36.3903C24.9918 36.1048 25.2127 35.8633 25.4977 35.8503C26.1473 35.8209 26.7965 35.7329 27.427 35.5896C27.7053 35.5245 27.9825 35.7009 28.0462 35.9786C28.1098 36.2574 27.9355 36.5346 27.6567 36.5978C26.9662 36.7555 26.256 36.8517 25.5448 36.8838C25.537 36.8843 25.5287 36.8843 25.5209 36.8843Z" fill="white" stroke="white" stroke-width="0.5"/>
</svg>
