<svg width="50" height="50" viewBox="0 0 50 50" fill="none" xmlns="http://www.w3.org/2000/svg">
<path opacity="0.5" d="M48.9998 1H1V48.9998H48.9998V1Z" stroke="#7003FA" stroke-miterlimit="10"/>
<path d="M44.5088 1H49.001V5.49225" stroke="white" stroke-width="2" stroke-miterlimit="10"/>
<path d="M1 5.49225V1H5.49225" stroke="white" stroke-width="2" stroke-miterlimit="10"/>
<path d="M1 44.5078V49.0001H5.49225" stroke="white" stroke-width="2" stroke-miterlimit="10"/>
<path d="M49.001 44.5078V49.0001H44.5088" stroke="white" stroke-width="2" stroke-miterlimit="10"/>
<path d="M33.0281 25.1877C33.0281 29.5641 29.4333 33.1124 24.9982 33.1124C20.5631 33.1124 16.9683 29.5641 16.9683 25.1877C16.9683 20.8113 20.5631 17.2629 24.9982 17.2629C29.4333 17.2629 33.0281 20.8113 33.0281 25.1877Z" fill="#7003FA" stroke="#7003FA" stroke-width="0.0514524"/>
<path d="M21.6296 14.1791C21.6296 16.1415 20.0176 17.733 18.0284 17.733C16.0392 17.733 14.4272 16.1415 14.4272 14.1791C14.4272 12.2167 16.0392 10.6252 18.0284 10.6252C20.0176 10.6252 21.6296 12.2167 21.6296 14.1791Z" fill="#7003FA" stroke="#7003FA" stroke-width="0.0514524"/>
<path d="M16.1639 17.8946C14.4893 19.8681 13.482 22.4112 13.482 25.1871C13.482 31.4653 18.639 36.5545 24.9994 36.5545C31.3605 36.5545 36.5175 31.4653 36.5175 25.1871C36.5175 18.9083 31.3605 13.8191 24.9994 13.8191C24.0441 13.8191 23.1162 13.934 22.2285 14.1505C22.2219 13.1381 21.8472 12.2107 21.2299 11.4945C22.4312 11.1729 23.6951 11.0012 24.9994 11.0012C32.9387 11.0012 39.374 17.3529 39.374 25.1871C39.374 33.0213 32.9387 39.373 24.9994 39.373C17.0608 39.373 10.6255 33.0213 10.6255 25.1871C10.6255 21.6096 11.9676 18.3411 14.1818 15.8456C14.5782 16.7369 15.2835 17.4638 16.1639 17.8946Z" fill="#7003FA" stroke="#7003FA" stroke-width="0.0514524"/>
</svg>
