<svg width="50" height="50" viewBox="0 0 50 50" fill="none" xmlns="http://www.w3.org/2000/svg">
<path opacity="0.5" d="M48.9998 1H1V48.9998H48.9998V1Z" stroke="#7003FA" stroke-miterlimit="10"/>
<path d="M44.5088 1H49.001V5.49225" stroke="white" stroke-width="2" stroke-miterlimit="10"/>
<path d="M1 5.49225V1H5.49225" stroke="white" stroke-width="2" stroke-miterlimit="10"/>
<path d="M1 44.5078V49.0001H5.49225" stroke="white" stroke-width="2" stroke-miterlimit="10"/>
<path d="M49.001 44.5078V49.0001H44.5088" stroke="white" stroke-width="2" stroke-miterlimit="10"/>
<path d="M38 12H12V38H38V12Z" fill="#7003FA"/>
<path d="M26.7148 28.2598C26.7148 27.7259 26.5651 27.3027 26.2656 26.9902C25.9727 26.6712 25.4714 26.3783 24.7617 26.1113C24.0521 25.8444 23.4401 25.5807 22.9258 25.3203C22.4115 25.0534 21.9688 24.7507 21.5977 24.4121C21.2331 24.0671 20.9466 23.6634 20.7383 23.2012C20.5365 22.7389 20.4355 22.1888 20.4355 21.5508C20.4355 20.4505 20.7871 19.5488 21.4902 18.8457C22.1934 18.1426 23.1276 17.7324 24.293 17.6152V15.5254H25.8555V17.6445C27.0078 17.8073 27.9095 18.2891 28.5605 19.0898C29.2116 19.8841 29.5371 20.916 29.5371 22.1855H26.7148C26.7148 21.4043 26.5521 20.8216 26.2266 20.4375C25.9076 20.0469 25.4779 19.8516 24.9375 19.8516C24.4036 19.8516 23.9902 20.0046 23.6973 20.3105C23.4043 20.61 23.2578 21.0267 23.2578 21.5605C23.2578 22.0553 23.401 22.4525 23.6875 22.752C23.974 23.0514 24.5046 23.3574 25.2793 23.6699C26.0605 23.9824 26.7018 24.2786 27.2031 24.5586C27.7044 24.832 28.1276 25.1445 28.4727 25.4961C28.8177 25.8411 29.0814 26.2383 29.2637 26.6875C29.446 27.1302 29.5371 27.6478 29.5371 28.2402C29.5371 29.347 29.1921 30.2454 28.502 30.9355C27.8118 31.6257 26.8613 32.0326 25.6504 32.1562V34.0996H24.0977V32.166C22.763 32.0228 21.7279 31.5508 20.9922 30.75C20.263 29.9427 19.8984 28.8717 19.8984 27.5371H22.7207C22.7207 28.3118 22.903 28.9076 23.2676 29.3242C23.6387 29.7344 24.1693 29.9395 24.8594 29.9395C25.4323 29.9395 25.8848 29.7897 26.2168 29.4902C26.5488 29.1842 26.7148 28.7741 26.7148 28.2598Z" fill="white"/>
</svg>
