<svg width="159" height="50" viewBox="0 0 159 50" fill="none" xmlns="http://www.w3.org/2000/svg">
<path opacity="0.5" d="M158 1H1V49H158V1Z" stroke="#7003FA" stroke-miterlimit="10"/>
<path d="M1 5.49225V1H5.49225" stroke="white" stroke-width="2" stroke-miterlimit="10"/>
<path d="M1 44.5078V49.0001H5.49225" stroke="white" stroke-width="2" stroke-miterlimit="10"/>
<path d="M20.928 28.832C18.936 28.832 18 28.16 18 26.552C18 26.192 18.048 25.808 18.144 25.376L20.328 15.2H16.008L13.776 25.592C13.68 26.072 13.608 26.576 13.608 27.128C13.608 30.512 16.248 32.192 20.544 32.192C25.728 32.192 28.272 30.872 29.424 25.592L31.656 15.2H27.336L25.152 25.376C24.648 27.776 23.328 28.832 20.928 28.832ZM53.9933 15.2H50.1053L47.7293 26.408C47.7053 26.528 47.6333 26.816 47.3693 26.816C47.1533 26.816 47.1053 26.576 47.0333 26.408L42.7853 16.448C42.3053 15.32 41.2253 15.008 40.0013 15.008C38.2013 15.008 36.7133 15.584 36.2573 17.648L33.2093 32H37.0973L39.4733 20.864C39.5693 20.408 39.7613 20.384 39.8573 20.384C39.9773 20.384 40.0973 20.528 40.2413 20.792L44.4413 30.656C45.0173 32.024 46.1693 32.192 47.3213 32.192C49.7933 32.192 50.6333 30.896 50.9453 29.504L53.9933 15.2ZM59.9008 32L63.4768 15.2H59.1568L55.5808 32H59.9008ZM84.8618 20.408C85.0538 20.048 85.2218 19.832 85.3418 19.832C85.4618 19.832 85.5098 19.928 85.5098 20.12C85.5098 20.216 85.5098 20.288 85.4858 20.36L82.8698 32H87.1898L90.2618 17.6C90.3098 17.384 90.3338 17.168 90.3338 16.952C90.3338 15.896 89.4938 15.008 87.1898 15.008C85.5338 15.008 84.0218 15.584 82.9418 17.48L77.4458 27.176C77.2778 27.488 77.0618 27.872 76.8698 27.872C76.6778 27.872 76.6058 27.488 76.5338 27.176L75.0938 17.48C74.8058 15.56 73.6058 15.008 71.9018 15.008C70.6538 15.008 68.5898 15.344 68.1338 17.6L65.0618 32H69.3818L71.7338 20.36C71.7578 20.24 71.8298 19.832 72.0938 19.832C72.2618 19.832 72.2618 20.12 72.3338 20.408L73.7258 30.056C73.9178 31.328 74.1818 32.192 76.1018 32.192C78.0218 32.192 78.5978 31.328 79.3658 30.056L84.8618 20.408ZM110.019 15.2H98.4752C96.6512 15.2 95.7632 15.968 95.3792 17.792L92.9072 29.432C92.8592 29.672 92.8352 29.912 92.8352 30.128C92.8352 31.28 93.5552 32 94.8992 32H106.539L107.235 28.736H98.4992C97.8272 28.736 97.5632 28.568 97.5632 28.064C97.5632 27.944 97.5872 27.776 97.6112 27.608L98.1632 25.04H107.715L108.387 21.92H98.8352L99.3152 19.592C99.5072 18.752 99.8432 18.464 100.683 18.464H109.323L110.019 15.2ZM120.685 32L123.541 18.56H129.781L130.501 15.2H113.701L112.981 18.56H119.221L116.365 32H120.685ZM127.072 32H131.8L134.128 28.16H141.208L141.904 32H146.2L143.104 16.976C142.744 15.344 141.76 15.008 140.224 15.008C138.184 15.008 137.32 15.656 136.504 16.976L127.072 32ZM139.144 19.568C139.312 19.304 139.456 19.04 139.624 19.04C139.792 19.04 139.768 19.304 139.84 19.568L140.848 24.896H135.88L139.144 19.568Z" fill="white"/>
<path d="M153 1H157.492V5.49225" stroke="white" stroke-width="2" stroke-miterlimit="10"/>
<path d="M157.492 44.5078V49.0001H153" stroke="white" stroke-width="2" stroke-miterlimit="10"/>
</svg>
